<mxfile host="app.diagrams.net" modified="2024-04-24T11:33:34.525Z" agent="Mozilla/5.0 (Windows NT 10.0; Win64; x64; rv:91.0) Gecko/20100101 Firefox/91.0" etag="mJRkmUWayd16dRtoTo32" version="24.2.9" type="github">
  <diagram id="C5RBs43oDa-KdzZeNtuy" name="Page-1">
    <mxGraphModel dx="1434" dy="1951" grid="1" gridSize="10" guides="1" tooltips="1" connect="1" arrows="1" fold="1" page="1" pageScale="1" pageWidth="827" pageHeight="1169" math="0" shadow="0">
      <root>
        <mxCell id="WIyWlLk6GJQsqaUBKTNV-0" />
        <mxCell id="WIyWlLk6GJQsqaUBKTNV-1" parent="WIyWlLk6GJQsqaUBKTNV-0" />
        <mxCell id="WIyWlLk6GJQsqaUBKTNV-3" value="&lt;div&gt;Title Screen&lt;/div&gt;&lt;div&gt;&lt;br&gt;&lt;/div&gt;" style="rounded=1;whiteSpace=wrap;html=1;fontSize=12;glass=0;strokeWidth=1;shadow=0;" parent="WIyWlLk6GJQsqaUBKTNV-1" vertex="1">
          <mxGeometry x="160" width="120" height="40" as="geometry" />
        </mxCell>
        <mxCell id="GjRZ8Q3v5kK_kFO-42Nc-0" value="&lt;div&gt;Store responces in dictonary user&lt;/div&gt;&lt;div&gt;&lt;br&gt;&lt;/div&gt;" style="rounded=1;whiteSpace=wrap;html=1;" vertex="1" parent="WIyWlLk6GJQsqaUBKTNV-1">
          <mxGeometry x="340" y="90" width="120" height="60" as="geometry" />
        </mxCell>
        <mxCell id="GjRZ8Q3v5kK_kFO-42Nc-3" value="Transitional Studies" style="rounded=1;whiteSpace=wrap;html=1;" vertex="1" parent="WIyWlLk6GJQsqaUBKTNV-1">
          <mxGeometry x="30" y="320" width="120" height="60" as="geometry" />
        </mxCell>
        <mxCell id="GjRZ8Q3v5kK_kFO-42Nc-4" value="Social Science,&lt;br&gt;Education,&lt;br&gt;and Public Safety" style="rounded=1;whiteSpace=wrap;html=1;" vertex="1" parent="WIyWlLk6GJQsqaUBKTNV-1">
          <mxGeometry x="30" y="380" width="120" height="60" as="geometry" />
        </mxCell>
        <mxCell id="GjRZ8Q3v5kK_kFO-42Nc-5" value="STEM" style="rounded=1;whiteSpace=wrap;html=1;" vertex="1" parent="WIyWlLk6GJQsqaUBKTNV-1">
          <mxGeometry x="150" y="380" width="120" height="60" as="geometry" />
        </mxCell>
        <mxCell id="GjRZ8Q3v5kK_kFO-42Nc-6" value="Humanities" style="rounded=1;whiteSpace=wrap;html=1;" vertex="1" parent="WIyWlLk6GJQsqaUBKTNV-1">
          <mxGeometry x="150" y="440" width="120" height="60" as="geometry" />
        </mxCell>
        <mxCell id="GjRZ8Q3v5kK_kFO-42Nc-7" value="Healthcare" style="rounded=1;whiteSpace=wrap;html=1;" vertex="1" parent="WIyWlLk6GJQsqaUBKTNV-1">
          <mxGeometry x="150" y="320" width="120" height="60" as="geometry" />
        </mxCell>
        <mxCell id="GjRZ8Q3v5kK_kFO-42Nc-8" value="&amp;nbsp;&amp;nbsp;&amp;nbsp;&amp;nbsp; &lt;br&gt;Business" style="rounded=1;whiteSpace=wrap;html=1;" vertex="1" parent="WIyWlLk6GJQsqaUBKTNV-1">
          <mxGeometry x="30" y="440" width="120" height="60" as="geometry" />
        </mxCell>
        <mxCell id="GjRZ8Q3v5kK_kFO-42Nc-9" value="Arts" style="rounded=1;whiteSpace=wrap;html=1;" vertex="1" parent="WIyWlLk6GJQsqaUBKTNV-1">
          <mxGeometry x="30" y="500" width="120" height="60" as="geometry" />
        </mxCell>
        <mxCell id="GjRZ8Q3v5kK_kFO-42Nc-55" style="edgeStyle=orthogonalEdgeStyle;rounded=0;orthogonalLoop=1;jettySize=auto;html=1;exitX=1;exitY=0.75;exitDx=0;exitDy=0;entryX=0.5;entryY=0;entryDx=0;entryDy=0;" edge="1" parent="WIyWlLk6GJQsqaUBKTNV-1" source="GjRZ8Q3v5kK_kFO-42Nc-10" target="GjRZ8Q3v5kK_kFO-42Nc-49">
          <mxGeometry relative="1" as="geometry" />
        </mxCell>
        <mxCell id="GjRZ8Q3v5kK_kFO-42Nc-10" value="Advanced&#xa;Manufacturing&#xa;and Aerospace" style="rounded=1;whiteSpace=wrap;html=1;" vertex="1" parent="WIyWlLk6GJQsqaUBKTNV-1">
          <mxGeometry x="30" y="560" width="120" height="60" as="geometry" />
        </mxCell>
        <mxCell id="GjRZ8Q3v5kK_kFO-42Nc-11" value="Exploratory" style="rounded=1;whiteSpace=wrap;html=1;" vertex="1" parent="WIyWlLk6GJQsqaUBKTNV-1">
          <mxGeometry x="150" y="500" width="120" height="60" as="geometry" />
        </mxCell>
        <mxCell id="GjRZ8Q3v5kK_kFO-42Nc-12" value="Quiz" style="rounded=1;whiteSpace=wrap;html=1;" vertex="1" parent="WIyWlLk6GJQsqaUBKTNV-1">
          <mxGeometry x="430" y="420" width="120" height="60" as="geometry" />
        </mxCell>
        <mxCell id="GjRZ8Q3v5kK_kFO-42Nc-15" value="&lt;div&gt;No&lt;/div&gt;" style="text;strokeColor=none;align=center;fillColor=none;html=1;verticalAlign=middle;whiteSpace=wrap;rounded=0;" vertex="1" parent="WIyWlLk6GJQsqaUBKTNV-1">
          <mxGeometry x="290" y="700" width="40" height="30" as="geometry" />
        </mxCell>
        <mxCell id="GjRZ8Q3v5kK_kFO-42Nc-16" value="&lt;div&gt;Write choice into user.pathway&lt;/div&gt;" style="rounded=1;whiteSpace=wrap;html=1;" vertex="1" parent="WIyWlLk6GJQsqaUBKTNV-1">
          <mxGeometry x="155" y="850" width="120" height="60" as="geometry" />
        </mxCell>
        <mxCell id="GjRZ8Q3v5kK_kFO-42Nc-21" value="&lt;div&gt;Yes&lt;/div&gt;" style="text;strokeColor=none;align=center;fillColor=none;html=1;verticalAlign=middle;whiteSpace=wrap;rounded=0;" vertex="1" parent="WIyWlLk6GJQsqaUBKTNV-1">
          <mxGeometry x="430" y="800" width="60" height="30" as="geometry" />
        </mxCell>
        <mxCell id="GjRZ8Q3v5kK_kFO-42Nc-28" value="&lt;div&gt;2-10&lt;/div&gt;" style="text;strokeColor=none;align=center;fillColor=none;html=1;verticalAlign=middle;whiteSpace=wrap;rounded=0;" vertex="1" parent="WIyWlLk6GJQsqaUBKTNV-1">
          <mxGeometry x="160" y="190" width="60" height="30" as="geometry" />
        </mxCell>
        <mxCell id="GjRZ8Q3v5kK_kFO-42Nc-29" value="1" style="text;strokeColor=none;align=center;fillColor=none;html=1;verticalAlign=middle;whiteSpace=wrap;rounded=0;" vertex="1" parent="WIyWlLk6GJQsqaUBKTNV-1">
          <mxGeometry x="380" y="180" width="60" height="30" as="geometry" />
        </mxCell>
        <mxCell id="GjRZ8Q3v5kK_kFO-42Nc-32" style="edgeStyle=orthogonalEdgeStyle;rounded=0;orthogonalLoop=1;jettySize=auto;html=1;entryX=0.5;entryY=0;entryDx=0;entryDy=0;" edge="1" parent="WIyWlLk6GJQsqaUBKTNV-1" source="GjRZ8Q3v5kK_kFO-42Nc-12" target="GjRZ8Q3v5kK_kFO-42Nc-51">
          <mxGeometry relative="1" as="geometry">
            <mxPoint x="490.03999999999996" y="643" as="targetPoint" />
          </mxGeometry>
        </mxCell>
        <mxCell id="GjRZ8Q3v5kK_kFO-42Nc-34" value="&lt;div&gt;No&lt;/div&gt;" style="text;strokeColor=none;align=center;fillColor=none;html=1;verticalAlign=middle;whiteSpace=wrap;rounded=0;" vertex="1" parent="WIyWlLk6GJQsqaUBKTNV-1">
          <mxGeometry x="380" y="700" width="40" height="30" as="geometry" />
        </mxCell>
        <mxCell id="GjRZ8Q3v5kK_kFO-42Nc-38" value="&lt;div&gt;Yes&lt;/div&gt;" style="text;strokeColor=none;align=center;fillColor=none;html=1;verticalAlign=middle;whiteSpace=wrap;rounded=0;" vertex="1" parent="WIyWlLk6GJQsqaUBKTNV-1">
          <mxGeometry x="140" y="800" width="60" height="30" as="geometry" />
        </mxCell>
        <mxCell id="GjRZ8Q3v5kK_kFO-42Nc-59" style="edgeStyle=orthogonalEdgeStyle;rounded=0;orthogonalLoop=1;jettySize=auto;html=1;exitX=0.5;exitY=1;exitDx=0;exitDy=0;entryX=0.5;entryY=0;entryDx=0;entryDy=0;" edge="1" parent="WIyWlLk6GJQsqaUBKTNV-1" source="GjRZ8Q3v5kK_kFO-42Nc-39" target="GjRZ8Q3v5kK_kFO-42Nc-58">
          <mxGeometry relative="1" as="geometry" />
        </mxCell>
        <mxCell id="GjRZ8Q3v5kK_kFO-42Nc-39" value="&lt;div&gt;Start Quiz&lt;/div&gt;" style="rounded=1;whiteSpace=wrap;html=1;" vertex="1" parent="WIyWlLk6GJQsqaUBKTNV-1">
          <mxGeometry x="440" y="850" width="120" height="60" as="geometry" />
        </mxCell>
        <mxCell id="GjRZ8Q3v5kK_kFO-42Nc-45" style="edgeStyle=orthogonalEdgeStyle;rounded=0;orthogonalLoop=1;jettySize=auto;html=1;entryX=0.5;entryY=0;entryDx=0;entryDy=0;" edge="1" parent="WIyWlLk6GJQsqaUBKTNV-1" source="GjRZ8Q3v5kK_kFO-42Nc-40" target="GjRZ8Q3v5kK_kFO-42Nc-12">
          <mxGeometry relative="1" as="geometry">
            <mxPoint x="490" y="227.5" as="targetPoint" />
            <Array as="points">
              <mxPoint x="490" y="230" />
            </Array>
          </mxGeometry>
        </mxCell>
        <mxCell id="GjRZ8Q3v5kK_kFO-42Nc-46" style="edgeStyle=orthogonalEdgeStyle;rounded=0;orthogonalLoop=1;jettySize=auto;html=1;exitX=0;exitY=0.5;exitDx=0;exitDy=0;entryX=0.833;entryY=0.05;entryDx=0;entryDy=0;entryPerimeter=0;" edge="1" parent="WIyWlLk6GJQsqaUBKTNV-1" source="GjRZ8Q3v5kK_kFO-42Nc-40" target="GjRZ8Q3v5kK_kFO-42Nc-3">
          <mxGeometry relative="1" as="geometry">
            <mxPoint x="130" y="228" as="targetPoint" />
          </mxGeometry>
        </mxCell>
        <mxCell id="GjRZ8Q3v5kK_kFO-42Nc-40" value="&lt;div&gt;Main menu &lt;/div&gt;&lt;div&gt;Pick your pathway or take the test&lt;/div&gt;" style="rhombus;whiteSpace=wrap;html=1;" vertex="1" parent="WIyWlLk6GJQsqaUBKTNV-1">
          <mxGeometry x="300" y="160" width="130" height="135" as="geometry" />
        </mxCell>
        <mxCell id="GjRZ8Q3v5kK_kFO-42Nc-43" value="&#xa;Ask name / gender / pronouns / fantasy race&#xa;&#xa;" style="rounded=1;whiteSpace=wrap;html=1;" vertex="1" parent="WIyWlLk6GJQsqaUBKTNV-1">
          <mxGeometry x="340" width="120" height="60" as="geometry" />
        </mxCell>
        <mxCell id="GjRZ8Q3v5kK_kFO-42Nc-52" style="edgeStyle=orthogonalEdgeStyle;rounded=0;orthogonalLoop=1;jettySize=auto;html=1;entryX=0;entryY=0.5;entryDx=0;entryDy=0;" edge="1" parent="WIyWlLk6GJQsqaUBKTNV-1" source="GjRZ8Q3v5kK_kFO-42Nc-49" target="GjRZ8Q3v5kK_kFO-42Nc-51">
          <mxGeometry relative="1" as="geometry" />
        </mxCell>
        <mxCell id="GjRZ8Q3v5kK_kFO-42Nc-49" value="&lt;div&gt;Display choice.info&lt;/div&gt;&lt;div&gt;confirm choice?&lt;br&gt;&lt;/div&gt;" style="rhombus;whiteSpace=wrap;html=1;" vertex="1" parent="WIyWlLk6GJQsqaUBKTNV-1">
          <mxGeometry x="160" y="670" width="120" height="130" as="geometry" />
        </mxCell>
        <mxCell id="GjRZ8Q3v5kK_kFO-42Nc-51" value="&lt;div&gt;Display choice.info&lt;/div&gt;&lt;div&gt;confirm choice?&lt;br&gt;&lt;/div&gt;" style="rhombus;whiteSpace=wrap;html=1;" vertex="1" parent="WIyWlLk6GJQsqaUBKTNV-1">
          <mxGeometry x="430" y="670" width="120" height="130" as="geometry" />
        </mxCell>
        <mxCell id="GjRZ8Q3v5kK_kFO-42Nc-54" value="" style="endArrow=classic;html=1;rounded=0;entryX=0.5;entryY=1;entryDx=0;entryDy=0;" edge="1" parent="WIyWlLk6GJQsqaUBKTNV-1" target="GjRZ8Q3v5kK_kFO-42Nc-40">
          <mxGeometry width="50" height="50" relative="1" as="geometry">
            <mxPoint x="360" y="740" as="sourcePoint" />
            <mxPoint x="370" y="350" as="targetPoint" />
          </mxGeometry>
        </mxCell>
        <mxCell id="GjRZ8Q3v5kK_kFO-42Nc-56" style="edgeStyle=orthogonalEdgeStyle;rounded=0;orthogonalLoop=1;jettySize=auto;html=1;entryX=0.55;entryY=-0.1;entryDx=0;entryDy=0;entryPerimeter=0;" edge="1" parent="WIyWlLk6GJQsqaUBKTNV-1" source="GjRZ8Q3v5kK_kFO-42Nc-49" target="GjRZ8Q3v5kK_kFO-42Nc-16">
          <mxGeometry relative="1" as="geometry" />
        </mxCell>
        <mxCell id="GjRZ8Q3v5kK_kFO-42Nc-57" style="edgeStyle=orthogonalEdgeStyle;rounded=0;orthogonalLoop=1;jettySize=auto;html=1;entryX=0.425;entryY=-0.033;entryDx=0;entryDy=0;entryPerimeter=0;" edge="1" parent="WIyWlLk6GJQsqaUBKTNV-1" source="GjRZ8Q3v5kK_kFO-42Nc-51" target="GjRZ8Q3v5kK_kFO-42Nc-39">
          <mxGeometry relative="1" as="geometry" />
        </mxCell>
        <mxCell id="GjRZ8Q3v5kK_kFO-42Nc-58" value="&lt;div&gt;Use Pathway questions&lt;/div&gt;" style="rounded=1;whiteSpace=wrap;html=1;" vertex="1" parent="WIyWlLk6GJQsqaUBKTNV-1">
          <mxGeometry x="440" y="950" width="120" height="60" as="geometry" />
        </mxCell>
      </root>
    </mxGraphModel>
  </diagram>
</mxfile>
